<?xml version="1.0" encoding="UTF-8"?>
<svg version="1.1" xmlns="http://www.w3.org/2000/svg" width="225" height="225">
<path d="M0 0 C74.25 0 148.5 0 225 0 C225 74.25 225 148.5 225 225 C150.75 225 76.5 225 0 225 C0 150.75 0 76.5 0 0 Z " fill="#FEFEFE" transform="translate(0,0)"/>
<path d="M0 0 C1.10052704 -0.01134979 2.20105408 -0.02269958 3.33493042 -0.03439331 C4.53764084 -0.03146271 5.74035126 -0.0285321 6.97950745 -0.0255127 C8.24977783 -0.03398224 9.52004822 -0.04245178 10.82881165 -0.05117798 C14.31026294 -0.07339173 17.79147755 -0.07632478 21.27298999 -0.07443047 C24.18057482 -0.07431076 27.08810951 -0.08287481 29.99568039 -0.09120798 C36.85572058 -0.11044139 43.71563909 -0.11332607 50.57569885 -0.10656738 C57.65022751 -0.09992562 64.72423491 -0.12279595 71.79865783 -0.15988111 C77.87523002 -0.19057831 83.95163453 -0.20193818 90.0282827 -0.1980443 C93.65645013 -0.19597685 97.28421189 -0.20145463 100.91230583 -0.22593689 C104.95849493 -0.25233874 109.00358331 -0.23847631 113.04981995 -0.2208252 C114.85084923 -0.24072006 114.85084923 -0.24072006 116.68826294 -0.26101685 C124.7100043 -0.1795247 124.7100043 -0.1795247 128.82202148 2.53515625 C130.89057639 5.9007676 131.21223957 7.82220442 131.22633362 11.75769043 C131.24209442 13.02250244 131.25785522 14.28731445 131.27409363 15.5904541 C131.26514352 16.96261469 131.25488845 18.3347673 131.24342346 19.70690918 C131.24679438 21.1226849 131.2516493 22.53845779 131.25791931 23.95422363 C131.26527791 26.91666303 131.25461954 29.87834692 131.23121643 32.84069824 C131.20272719 36.63078444 131.2191369 40.41910041 131.24907875 44.2091217 C131.26718037 47.13123826 131.26138104 50.05293775 131.24843979 52.97506714 C131.24511359 54.37206229 131.24916528 55.76909579 131.26083755 57.16604614 C131.27358944 59.12106565 131.25069371 61.07621861 131.22633362 63.03112793 C131.22235565 64.14189697 131.21837769 65.25266602 131.21427917 66.39709473 C130.36457062 70.40838892 128.78349901 71.9050269 125.57936096 74.39440918 C123.23175049 75.03364563 123.23175049 75.03364563 120.78907776 75.05383301 C119.86850082 75.0734761 118.94792389 75.0931192 117.99945068 75.11335754 C116.52886955 75.10745857 116.52886955 75.10745857 115.02857971 75.10144043 C114.01463638 75.11656174 113.00069305 75.13168304 111.95602417 75.14726257 C108.7260772 75.19015801 105.49706447 75.19897965 102.26686096 75.20690918 C100.07347672 75.23005195 97.88011471 75.25541682 95.68678284 75.28308105 C90.31763337 75.34595129 84.94884925 75.38087101 79.57936096 75.39440918 C81.33170393 77.16030847 83.08585321 78.92434856 84.84107971 80.68737793 C85.33378357 81.18427124 85.82648743 81.68116455 86.3341217 82.19311523 C88.93795091 84.80561304 91.5681319 87.3333878 94.39186096 89.70690918 C99.00062949 93.63148939 103.18263719 97.97248657 107.43702698 102.27160645 C110.48458993 105.33885491 113.53835432 108.33501326 116.82936096 111.14440918 C119.97141496 113.85520087 123.09353384 116.57797416 126.14186096 119.39440918 C127.00940002 120.17815918 127.87693909 120.96190918 128.77076721 121.76940918 C130.57936096 124.39440918 130.57936096 124.39440918 130.48170471 128.08190918 C129.57936096 131.39440918 129.57936096 131.39440918 127.57936096 133.39440918 C125.02305603 133.63491821 125.02305603 133.63491821 121.75270081 133.62145996 C119.92102859 133.62123337 119.92102859 133.62123337 118.05235291 133.6210022 C116.71499978 133.61078821 115.37764831 133.6003562 114.04029846 133.58972168 C112.67552395 133.58599198 111.31074677 133.58314481 109.94596863 133.58114624 C106.35215373 133.57350632 102.75850023 133.5538549 99.16474915 133.53173828 C95.4982878 133.5112875 91.83180039 133.50214618 88.16529846 133.49206543 C80.96991234 133.47060921 73.77465926 133.4364691 66.57936096 133.39440918 C66.58824341 134.087099 66.59712585 134.77978882 66.60627747 135.49346924 C66.69469479 142.69571694 66.75507229 149.89781075 66.79908752 157.10046387 C66.81695997 159.78945384 66.84480571 162.47806744 66.88111877 165.16687012 C66.92957711 169.02928479 66.95231722 172.89112126 66.96998596 176.75378418 C66.9906311 177.95807068 67.01127625 179.16235718 67.032547 180.40313721 C67.03300018 182.08442719 67.03300018 182.08442719 67.03346252 183.79968262 C67.04234497 184.78563416 67.05122742 185.77158569 67.06037903 186.78741455 C66.44193685 190.13921267 65.21842301 191.30525513 62.57936096 193.39440918 C59.85670471 194.11706543 59.85670471 194.11706543 56.57936096 193.39440918 C53.471004 191.17017268 50.83513671 188.53471022 48.14186096 185.83190918 C47.05421448 184.7752002 47.05421448 184.7752002 45.94459534 183.69714355 C43.14302318 180.9660512 40.37891423 178.19914658 37.62135315 175.42370605 C34.72793051 172.51334481 31.84946956 169.6613004 28.70436096 167.01940918 C25.69468566 164.42806713 22.8684748 161.72186135 20.07936096 158.89440918 C17.37132531 156.14940376 14.63766847 153.52170008 11.70436096 151.01940918 C7.77301365 147.65417588 4.15584113 144.00441634 0.52760315 140.32092285 C-1.90638025 137.86335434 -4.35758079 135.50949483 -7.04563904 133.33190918 C-9.42063904 131.39440918 -9.42063904 131.39440918 -10.42063904 129.39440918 C-10.53268061 127.35317318 -10.57996076 125.30827025 -10.59764099 123.26403809 C-10.61047623 121.97575104 -10.62331146 120.68746399 -10.63653564 119.36013794 C-10.64470234 117.94708642 -10.65214621 116.53403056 -10.65892029 115.12097168 C-10.66299582 114.41068188 -10.66707134 113.70039207 -10.67127037 112.96857834 C-10.69212873 109.20980876 -10.70643197 105.45107568 -10.71580505 101.69226074 C-10.72687514 97.80930003 -10.7612817 93.92691151 -10.80097675 90.04415321 C-10.82711521 87.05871512 -10.83549431 84.07341401 -10.83908653 81.08787155 C-10.84395897 79.65651963 -10.85559182 78.2251741 -10.87412453 76.79393387 C-10.89845438 74.79061922 -10.89513723 72.7870266 -10.89060974 70.78356934 C-10.89647598 69.64376617 -10.90234222 68.50396301 -10.90838623 67.32962036 C-10.30509036 63.69904943 -9.38546248 62.53085921 -6.42063904 60.39440918 C-4.15531921 59.87542725 -4.15531921 59.87542725 -1.65208435 59.84851074 C-0.71141113 59.82879211 0.22926208 59.80907349 1.19844055 59.78875732 C2.20586304 59.78752869 3.21328552 59.78630005 4.25123596 59.78503418 C5.80756744 59.7602298 5.80756744 59.7602298 7.39533997 59.73492432 C10.70674006 59.68636933 14.01768067 59.66505616 17.32936096 59.64440918 C19.57547792 59.61625586 21.82157341 59.58632934 24.06764221 59.55456543 C29.57146484 59.48060856 35.07515783 59.42900998 40.57936096 59.39440918 C37.75033221 56.53594911 34.91535317 53.68345934 32.07936096 50.83190918 C31.28787659 50.0320459 30.49639221 49.23218262 29.68092346 48.40808105 C25.34561565 44.05500559 20.93617872 39.8751555 16.27662659 35.87121582 C14.27992787 34.13386965 12.41738861 32.29808067 10.57936096 30.39440918 C8.01945962 27.79458735 5.41156556 25.3317252 2.64186096 22.95690918 C1.28606838 21.77126586 -0.06798826 20.5836356 -1.42063904 19.39440918 C-2.25852966 18.67124512 -3.09642029 17.94808105 -3.95970154 17.20300293 C-10.34247402 11.36365535 -10.34247402 11.36365535 -10.73313904 6.51940918 C-8.49024414 1.17918324 -5.62344628 0.02193655 0 0 Z " fill="#010101" transform="translate(52.42063903808594,20.6055908203125)"/>
</svg>
