<?xml version="1.0" encoding="UTF-8"?>
<svg version="1.1" xmlns="http://www.w3.org/2000/svg" width="225" height="225">
<path d="M0 0 C74.25 0 148.5 0 225 0 C225 74.25 225 148.5 225 225 C150.75 225 76.5 225 0 225 C0 150.75 0 76.5 0 0 Z " fill="#FEFEFE" transform="translate(0,0)"/>
<path d="M0 0 C1.53297297 3.06594594 1.12131455 6.27111853 1.09765625 9.6328125 C1.09553383 10.76056595 1.09553383 10.76056595 1.09336853 11.91110229 C1.08776465 14.3157751 1.07521157 16.72035527 1.0625 19.125 C1.0574855 20.75390491 1.0529225 22.38281127 1.04882812 24.01171875 C1.03779397 28.00784827 1.02052679 32.00390842 1 36 C0.34 36 -0.32 36 -1 36 C-1 33.03 -1 30.06 -1 27 C-2.04800781 27.73089844 -2.04800781 27.73089844 -3.1171875 28.4765625 C-6.39901194 30.21085997 -8.43964525 30.40270943 -12.125 30.375 C-13.15882813 30.38273437 -14.19265625 30.39046875 -15.2578125 30.3984375 C-18.2834498 29.95881499 -19.17233014 29.38227313 -21 27 C-21.26218749 30.14624993 -21.24754367 31.61837017 -19.5 34.3125 C-19.005 34.869375 -18.51 35.42625 -18 36 C-18.845625 35.690625 -19.69125 35.38125 -20.5625 35.0625 C-24.65377681 33.79792353 -28.7042085 33 -33 33 C-33.33 33.99 -33.66 34.98 -34 36 C-34.33 35.67 -34.66 35.34 -35 35 C-36.66617115 34.95936168 -38.33388095 34.957279 -40 35 C-38.515 35.99 -38.515 35.99 -37 37 C-37.72445312 37.09796875 -38.44890625 37.1959375 -39.1953125 37.296875 C-47.33544324 38.53181011 -47.33544324 38.53181011 -54 43 C-55.15196754 45.99096209 -55.15196754 45.99096209 -55 49 C-54.34 49.99 -53.68 50.98 -53 52 C-53.928125 51.938125 -54.85625 51.87625 -55.8125 51.8125 C-58.90580004 51.69634543 -58.90580004 51.69634543 -60.5703125 53.19921875 C-62.28606383 55.36031537 -63.11157786 57.41287579 -64.0625 60 C-65.18561571 63.03105927 -66.18945941 65.28418911 -68 68 C-68.21280606 70.08718807 -68.21280606 70.08718807 -67.9375 72.3125 C-67.88464844 73.05113281 -67.83179687 73.78976563 -67.77734375 74.55078125 C-65.06460726 83.09794597 -56.55263686 86.41668589 -49.21679688 90.32421875 C-44.01122538 93.25791629 -40.96694701 95.49254428 -38.81860352 101.17236328 C-37.8542553 103.32539362 -36.84551692 104.53552052 -35 106 C-31.36373783 105.92263272 -29.48875849 105.3634358 -26.5625 103.1875 C-24.84722454 101.17364787 -24.84722454 101.17364787 -24.8125 99 C-27.0731613 95.19257044 -31.47137574 93.50172637 -35.546875 92.1640625 C-38.57691765 90.72623971 -39.38122326 89.40644006 -41 86.5 C-41.50144531 85.61054687 -42.00289063 84.72109375 -42.51953125 83.8046875 C-44.36247521 80.31330554 -46.13340363 76.7941243 -47.82421875 73.2265625 C-49.02431094 70.95396267 -50.40636355 69.01156416 -52 67 C-51.39671875 67.13019531 -50.7934375 67.26039062 -50.171875 67.39453125 C-47.72529903 67.81676291 -45.4829027 68.07315311 -43 68 C-38.21129976 64.37611874 -36.82356317 57.53858812 -35 52 C-32.31752883 53.01978243 -30.127027 53.90563709 -27.8125 55.625 C-21.79430412 58.5672291 -15.47257815 57.18743129 -9.2421875 55.4609375 C0.70194103 53.41667414 9.65303117 55.57328802 19 59 C17.84981782 50.65192019 17.84981782 50.65192019 13 44 C10.71598433 42.51170592 8.42622723 41.25977183 6 40 C6.99 39.67 7.98 39.34 9 39 C8.34 38.01 7.68 37.02 7 36 C7.495 36.268125 7.99 36.53625 8.5 36.8125 C11.139193 38.14108445 11.139193 38.14108445 14.6875 39.125 C20.97033788 41.4471746 26.41786951 46.02559469 29.5625 51.9375 C30.05022722 55.35159055 30.1073051 58.60454795 29.97265625 62.046875 C29.85962537 64.08145826 29.85962537 64.08145826 31 66 C31.12800594 67.58158453 31.22847191 69.16547028 31.3125 70.75 C31.72664595 75.5609955 33.25744885 78.01887736 36 82 C37.01082342 88.84048608 34.12885776 93.13446792 30.6875 98.75 C30.18798828 99.59949219 29.68847656 100.44898437 29.17382812 101.32421875 C24.82361884 108.61874187 24.82361884 108.61874187 22 111 C19.73828125 111.07421875 19.73828125 111.07421875 17.3125 110.6875 C16.55090576 110.56608643 15.78931152 110.44467285 15.00463867 110.31958008 C14.34310791 110.21411865 13.68157715 110.10865723 13 110 C13.14074951 110.53802246 13.28149902 111.07604492 13.42651367 111.63037109 C14.82694638 117.3641833 15.33625646 122.73339764 15.3125 128.625 C15.32861328 129.43195313 15.34472656 130.23890625 15.36132812 131.0703125 C15.36575748 136.52727528 14.32979293 140.08756839 12 145 C11.55360867 147.27635952 11.55360867 147.27635952 11.5 149.375 C11.10849637 154.21465122 9.70113834 158.47433006 8 163 C8.66 163 9.32 163 10 163 C10.12549237 169.52560315 10.12549237 169.52560315 9.50219727 171.88183594 C8.87713912 174.51820173 8.88793467 176.93171724 8.90234375 179.640625 C8.90556641 180.71054688 8.90878906 181.78046875 8.91210938 182.8828125 C8.92048828 183.99398437 8.92886719 185.10515625 8.9375 186.25 C8.94426758 187.93996094 8.94426758 187.93996094 8.95117188 189.6640625 C8.96294603 192.44276217 8.9793916 195.22135409 9 198 C16.8872092 202.58003647 24.76921892 207.05529386 33 211 C32.75 212.875 32.75 212.875 32 215 C23.56508775 221.09081363 2.78660345 216.81880134 -7.3671875 215.59375 C-12.09885586 214.77085115 -12.09885586 214.77085115 -14 214 C-16.59558305 210.10662542 -15.82799071 207.35740566 -15 203 C-14.82855469 202.36578125 -14.65710938 201.7315625 -14.48046875 201.078125 C-12.54315537 192.69885088 -14.30050113 185.26301773 -17.21020508 177.39111328 C-19.04259149 172.31121706 -19.46873908 168.34362548 -19 163 C-18.36191406 162.88398438 -17.72382813 162.76796875 -17.06640625 162.6484375 C-16.04353516 162.32746094 -16.04353516 162.32746094 -15 162 C-13.89363605 159.60931266 -13.89363605 159.60931266 -13 157 C-12.47921875 156.55785156 -11.9584375 156.11570313 -11.421875 155.66015625 C-9.74185232 154.05001164 -9.74185232 154.05001164 -9.92578125 151.51953125 C-10.05339844 150.62621094 -10.18101562 149.73289063 -10.3125 148.8125 C-10.43238281 147.91144531 -10.55226562 147.01039063 -10.67578125 146.08203125 C-10.83626953 145.05142578 -10.83626953 145.05142578 -11 144 C-11.66 144 -12.32 144 -13 144 C-14.50846152 145.52620876 -14.50846152 145.52620876 -16 147.4375 C-18.79661017 150.89830508 -18.79661017 150.89830508 -21 152 C-23.63853301 156.3931902 -24.40596069 159.99430999 -24.8125 165.0625 C-25.58461147 171.83178766 -27.4317337 176.93782757 -30.66015625 183 C-33.28383432 188.87459112 -33.16482967 195.05417373 -33.125 201.375 C-33.12306641 202.1187085 -33.12113281 202.86241699 -33.11914062 203.62866211 C-33.07833915 208.81554913 -32.74740677 213.86157844 -32 219 C-35.64396001 221.42930667 -37.53912081 221.29874985 -41.875 221.3125 C-43.08929688 221.32925781 -44.30359375 221.34601563 -45.5546875 221.36328125 C-49.23585771 220.97513065 -51.10446046 220.26746295 -54 218 C-55.47511567 214.14830908 -55.52590323 212.24641435 -53.91601562 208.4309082 C-53.23055664 207.00524536 -53.23055664 207.00524536 -52.53125 205.55078125 C-49.69561403 198.94948883 -49.33693704 193.23484281 -49.375 186.125 C-49.21268006 175.55541669 -48.36345673 166.0903702 -45 156 C-45.86625 155.6596875 -45.86625 155.6596875 -46.75 155.3125 C-49 154 -49 154 -50.875 151.625 C-56.09711243 145.17415524 -63.60653357 142.71040286 -71.63574219 141.65283203 C-75.16605506 141.37301425 -78.69473879 141.16435713 -82.23242188 141.00390625 C-89.88879861 140.47276277 -95.52649821 138.05550412 -101.3046875 132.97265625 C-101.82289062 132.34230469 -102.34109375 131.71195313 -102.875 131.0625 C-103.40867188 130.43472656 -103.94234375 129.80695313 -104.4921875 129.16015625 C-108.34029136 123.64719916 -109.57235779 118.70599289 -110.4375 112.1875 C-111.81677577 102.61957925 -111.81677577 102.61957925 -116 94 C-116.99 93.34 -117.98 92.68 -119 92 C-130.22131765 98.9850277 -140.4483862 106.4322338 -150.08984375 115.53125 C-152 117 -152 117 -155 117 C-155.59664188 102.28904864 -147.34938459 89.69612254 -137.81518555 79.14550781 C-129.51611765 70.42054796 -119.50190561 64.70815978 -109 59 C-108.31566895 58.62004883 -107.63133789 58.24009766 -106.92626953 57.84863281 C-91.01168386 49.07681394 -73.51969735 43.30323703 -56.26806641 37.76318359 C-52.86423662 36.87184299 -52.86423662 36.87184299 -50 35 C-48.88625 34.855625 -47.7725 34.71125 -46.625 34.5625 C-42.91489453 34.24699783 -42.91489453 34.24699783 -40 32 C-38.00039988 31.960008 -35.99952758 31.95653201 -34 32 C-33.67 31.67 -33.34 31.34 -33 31 C-30.34536879 30.54540142 -27.67810862 30.29756762 -25 30 C-24.98018066 29.20303711 -24.96036133 28.40607422 -24.93994141 27.58496094 C-24.84466752 23.97297528 -24.73499693 20.36156601 -24.625 16.75 C-24.5940625 15.49574219 -24.563125 14.24148437 -24.53125 12.94921875 C-24.47324219 11.14130859 -24.47324219 11.14130859 -24.4140625 9.296875 C-24.3826416 8.18666992 -24.3512207 7.07646484 -24.31884766 5.93261719 C-24.00789521 3.07261654 -23.59683218 1.37153294 -22 -1 C-14.62855848 -4.59582513 -7.02460108 -3.80499225 0 0 Z " fill="#131313" transform="translate(172,3)"/>
<path d="M0 0 C1.53297297 3.06594594 1.12131455 6.27111853 1.09765625 9.6328125 C1.09553383 10.76056595 1.09553383 10.76056595 1.09336853 11.91110229 C1.08776465 14.3157751 1.07521157 16.72035527 1.0625 19.125 C1.0574855 20.75390491 1.0529225 22.38281127 1.04882812 24.01171875 C1.03779397 28.00784827 1.02052679 32.00390842 1 36 C0.34 36 -0.32 36 -1 36 C-1 33.03 -1 30.06 -1 27 C-2.04800781 27.73089844 -2.04800781 27.73089844 -3.1171875 28.4765625 C-6.39901194 30.21085997 -8.43964525 30.40270943 -12.125 30.375 C-13.15882813 30.38273437 -14.19265625 30.39046875 -15.2578125 30.3984375 C-18.2834498 29.95881499 -19.17233014 29.38227313 -21 27 C-21.26218749 30.14624993 -21.24754367 31.61837017 -19.5 34.3125 C-19.005 34.869375 -18.51 35.42625 -18 36 C-18.845625 35.690625 -19.69125 35.38125 -20.5625 35.0625 C-24.65377681 33.79792353 -28.7042085 33 -33 33 C-33.33 33.99 -33.66 34.98 -34 36 C-34.33 35.67 -34.66 35.34 -35 35 C-36.66617115 34.95936168 -38.33388095 34.957279 -40 35 C-38.515 35.99 -38.515 35.99 -37 37 C-37.72445312 37.09796875 -38.44890625 37.1959375 -39.1953125 37.296875 C-47.33544324 38.53181011 -47.33544324 38.53181011 -54 43 C-55.15196754 45.99096209 -55.15196754 45.99096209 -55 49 C-54.34 49.99 -53.68 50.98 -53 52 C-53.928125 51.938125 -54.85625 51.87625 -55.8125 51.8125 C-58.90580004 51.69634543 -58.90580004 51.69634543 -60.5703125 53.19921875 C-62.28606383 55.36031537 -63.11157786 57.41287579 -64.0625 60 C-65.18561571 63.03105927 -66.18945941 65.28418911 -68 68 C-68.21280606 70.08718807 -68.21280606 70.08718807 -67.9375 72.3125 C-67.88464844 73.05113281 -67.83179687 73.78976563 -67.77734375 74.55078125 C-65.03811959 83.18140208 -56.32068264 86.56969054 -48.953125 90.58789062 C-48.0765625 91.08611328 -47.2 91.58433594 -46.296875 92.09765625 C-45.49604492 92.53601807 -44.69521484 92.97437988 -43.87011719 93.42602539 C-41.46950405 95.44648921 -41.30522285 96.94229813 -41 100 C-41.99 100.495 -41.99 100.495 -43 101 C-43.24081299 100.39188477 -43.48162598 99.78376953 -43.72973633 99.15722656 C-45.28536689 96.51537539 -46.59717164 95.83933882 -49.32421875 94.484375 C-50.18853516 94.03707031 -51.05285156 93.58976562 -51.94335938 93.12890625 C-53.75092995 92.22061812 -55.56078124 91.3168525 -57.37304688 90.41796875 C-63.46065222 87.25475709 -68.13597041 83.7633531 -72 78 C-72 77.34 -72 76.68 -72 76 C-85.00589032 87.06884283 -99.63408199 100.90224598 -105.1875 117.5625 C-104.85770925 123.60866368 -101.84352166 128.15647834 -97.625 132.375 C-91.57117468 136.12260615 -86.7269192 137.53851765 -79.6875 137.4375 C-78.93839355 137.42920166 -78.18928711 137.42090332 -77.41748047 137.41235352 C-71.26162699 137.22526777 -66.39124394 136.07164991 -61 133 C-59.64841797 132.23623047 -59.64841797 132.23623047 -58.26953125 131.45703125 C-52.5508543 128.01004942 -47.60784518 124.1072955 -42.77734375 119.50390625 C-41 118 -41 118 -39 118 C-38.7525 117.38125 -38.505 116.7625 -38.25 116.125 C-36.79371361 113.64931313 -35.62187494 113.04874998 -33 112 C-33.90536278 119.50157729 -33.90536278 119.50157729 -34.52734375 122.77734375 C-35.07521415 126.51282378 -35.14637266 130.1723491 -35.125 133.9375 C-35.12886719 134.61490234 -35.13273437 135.29230469 -35.13671875 135.99023438 C-35.1302749 139.35070201 -34.9227126 142.40342325 -34.2890625 145.7109375 C-34 149 -34 149 -35.328125 151.44921875 C-36.59851889 152.92876285 -37.86934476 154.40793616 -39.140625 155.88671875 C-44.17934368 164.32339687 -44.57016147 174.65576632 -45.1875 184.25 C-45.26935547 185.38824219 -45.35121094 186.52648437 -45.43554688 187.69921875 C-45.63313752 190.46548776 -45.81793852 193.23266556 -46 196 C-42.37 196.33 -38.74 196.66 -35 197 C-35.12375 195.35 -35.2475 193.7 -35.375 192 C-35.40894238 184.82967252 -33.12370041 179.25699144 -30.46875 172.73828125 C-28.77473745 168.56329882 -27.79176051 164.43385883 -27 160 C-27.66 159.67 -28.32 159.34 -29 159 C-28.401875 158.113125 -27.80375 157.22625 -27.1875 156.3125 C-25.919443 154.3922994 -24.68832367 152.44440307 -23.5625 150.4375 C-21.70802576 147.54452018 -19.42703901 145.42703901 -17 143 C-13.05161851 138.00645871 -11.65798211 133.01937347 -10 127 C-9.2776795 124.6229089 -8.54839082 122.24792514 -7.8125 119.875 C-7.46832031 118.75867188 -7.12414062 117.64234375 -6.76953125 116.4921875 C-6.51558594 115.66976562 -6.26164063 114.84734375 -6 114 C-5.67 114 -5.34 114 -5 114 C-5.88977246 121.71136135 -6.96881648 129.44511507 -8.68359375 137.01953125 C-9.05306201 140.49983103 -8.41487727 142.36141845 -7.0625 145.5625 C-5.51577934 149.25890023 -4.76008763 151.97965023 -5 156 C-5.969375 156.4125 -6.93875 156.825 -7.9375 157.25 C-8.948125 157.8275 -9.95875 158.405 -11 159 C-11.33 160.32 -11.66 161.64 -12 163 C-3.585 163.495 -3.585 163.495 5 164 C4.67 164.66 4.34 165.32 4 166 C1.06243881 166.0269501 -1.87487555 166.04681474 -4.8125 166.0625 C-5.64587891 166.07087891 -6.47925781 166.07925781 -7.33789062 166.08789062 C-8.14033203 166.09111328 -8.94277344 166.09433594 -9.76953125 166.09765625 C-10.50792236 166.10289307 -11.24631348 166.10812988 -12.00708008 166.11352539 C-14 166 -14 166 -17 165 C-17 166.65 -17 168.3 -17 170 C-17.33 170 -17.66 170 -18 170 C-18 167.36 -18 164.72 -18 162 C-17.01 162 -16.02 162 -15 162 C-14.731875 161.236875 -14.46375 160.47375 -14.1875 159.6875 C-13 157 -13 157 -11.40625 155.65625 C-9.74313784 154.04667552 -9.74313784 154.04667552 -9.92578125 151.51953125 C-10.05339844 150.62621094 -10.18101562 149.73289063 -10.3125 148.8125 C-10.43238281 147.91144531 -10.55226562 147.01039063 -10.67578125 146.08203125 C-10.83626953 145.05142578 -10.83626953 145.05142578 -11 144 C-11.66 144 -12.32 144 -13 144 C-14.50846152 145.52620876 -14.50846152 145.52620876 -16 147.4375 C-18.79661017 150.89830508 -18.79661017 150.89830508 -21 152 C-23.63853301 156.3931902 -24.40596069 159.99430999 -24.8125 165.0625 C-25.58461147 171.83178766 -27.4317337 176.93782757 -30.66015625 183 C-33.28383432 188.87459112 -33.16482967 195.05417373 -33.125 201.375 C-33.12306641 202.1187085 -33.12113281 202.86241699 -33.11914062 203.62866211 C-33.07833915 208.81554913 -32.74740677 213.86157844 -32 219 C-35.64396001 221.42930667 -37.53912081 221.29874985 -41.875 221.3125 C-43.08929688 221.32925781 -44.30359375 221.34601563 -45.5546875 221.36328125 C-49.23585771 220.97513065 -51.10446046 220.26746295 -54 218 C-55.47511567 214.14830908 -55.52590323 212.24641435 -53.91601562 208.4309082 C-53.23055664 207.00524536 -53.23055664 207.00524536 -52.53125 205.55078125 C-49.69561403 198.94948883 -49.33693704 193.23484281 -49.375 186.125 C-49.21268006 175.55541669 -48.36345673 166.0903702 -45 156 C-45.86625 155.6596875 -45.86625 155.6596875 -46.75 155.3125 C-49 154 -49 154 -50.875 151.625 C-56.09711243 145.17415524 -63.60653357 142.71040286 -71.63574219 141.65283203 C-75.16605506 141.37301425 -78.69473879 141.16435713 -82.23242188 141.00390625 C-89.88879861 140.47276277 -95.52649821 138.05550412 -101.3046875 132.97265625 C-101.82289062 132.34230469 -102.34109375 131.71195313 -102.875 131.0625 C-103.40867188 130.43472656 -103.94234375 129.80695313 -104.4921875 129.16015625 C-108.34029136 123.64719916 -109.57235779 118.70599289 -110.4375 112.1875 C-111.81677577 102.61957925 -111.81677577 102.61957925 -116 94 C-116.99 93.34 -117.98 92.68 -119 92 C-130.22131765 98.9850277 -140.4483862 106.4322338 -150.08984375 115.53125 C-152 117 -152 117 -155 117 C-155.59664188 102.28904864 -147.34938459 89.69612254 -137.81518555 79.14550781 C-129.51611765 70.42054796 -119.50190561 64.70815978 -109 59 C-108.31566895 58.62004883 -107.63133789 58.24009766 -106.92626953 57.84863281 C-91.01168386 49.07681394 -73.51969735 43.30323703 -56.26806641 37.76318359 C-52.86423662 36.87184299 -52.86423662 36.87184299 -50 35 C-48.88625 34.855625 -47.7725 34.71125 -46.625 34.5625 C-42.91489453 34.24699783 -42.91489453 34.24699783 -40 32 C-38.00039988 31.960008 -35.99952758 31.95653201 -34 32 C-33.67 31.67 -33.34 31.34 -33 31 C-30.34536879 30.54540142 -27.67810862 30.29756762 -25 30 C-24.98018066 29.20303711 -24.96036133 28.40607422 -24.93994141 27.58496094 C-24.84466752 23.97297528 -24.73499693 20.36156601 -24.625 16.75 C-24.5940625 15.49574219 -24.563125 14.24148437 -24.53125 12.94921875 C-24.47324219 11.14130859 -24.47324219 11.14130859 -24.4140625 9.296875 C-24.3826416 8.18666992 -24.3512207 7.07646484 -24.31884766 5.93261719 C-24.00789521 3.07261654 -23.59683218 1.37153294 -22 -1 C-14.62855848 -4.59582513 -7.02460108 -3.80499225 0 0 Z " fill="#060606" transform="translate(172,3)"/>
<path d="M0 0 C1.79232337 0.30871122 3.58384321 0.62209064 5.375 0.9375 C6.87160156 1.19853516 6.87160156 1.19853516 8.3984375 1.46484375 C11 2 11 2 13 3 C14.52148326 3.08372659 16.04655778 3.10730027 17.5703125 3.09765625 C18.91416016 3.09282227 18.91416016 3.09282227 20.28515625 3.08789062 C21.22230469 3.07951172 22.15945312 3.07113281 23.125 3.0625 C24.54232422 3.05573242 24.54232422 3.05573242 25.98828125 3.04882812 C28.32558387 3.03702357 30.66276061 3.02055759 33 3 C40.9115839 42.92824897 40.9115839 42.92824897 35.015625 53.640625 C33.19663003 57.86629025 32.9769723 62.41979012 32.4921875 66.9609375 C32 70 32 70 30 73 C27.04935852 73.2208564 24.31631769 73.28060989 21.375 73.1875 C20.17230469 73.16719727 20.17230469 73.16719727 18.9453125 73.14648438 C16.96325622 73.11109051 14.98154449 73.05728234 13 73 C12.67 72.01 12.34 71.02 12 70 C14.3125 67.5 14.3125 67.5 17 65 C17.99 65 18.98 65 20 65 C19.54548816 63.26982492 19.08621143 61.54090123 18.625 59.8125 C18.36976563 58.84957031 18.11453125 57.88664062 17.8515625 56.89453125 C17.07100712 54.0071734 17.07100712 54.0071734 15.8515625 51.4140625 C14.86990612 48.63120176 15.02509523 47.38864902 15.75 44.5625 C17.25576367 38.09944944 18.10987355 31.57178462 19 25 C18.52820313 26.80984375 18.52820313 26.80984375 18.046875 28.65625 C17.61503547 30.27095432 17.1827182 31.88553093 16.75 33.5 C16.54503906 34.29148438 16.34007812 35.08296875 16.12890625 35.8984375 C13.98579241 43.82146444 10.94923114 52.55053588 3.9375 57.4375 C1.31712588 59.55070493 0.38956265 61.96822695 -1 65 C-1.66 65.99 -2.32 66.98 -3 68 C-2.505 68.495 -2.505 68.495 -2 69 C-2.10803995 75.1582771 -3.71620586 80.13690581 -6 85.8125 C-8.70500267 92.55081945 -9.97226609 98.67824817 -10 106 C-11.45823212 106.0270043 -12.91660675 106.04639787 -14.375 106.0625 C-15.18710938 106.07410156 -15.99921875 106.08570313 -16.8359375 106.09765625 C-19 106 -19 106 -21 105 C-21.48966613 91.12612634 -21.94703792 73.11582413 -12.75 61.875 C-12.20859375 61.29492188 -11.6671875 60.71484375 -11.109375 60.1171875 C-9.42990232 56.91199668 -10.34966788 54.49783153 -11 51 C-11.73490053 39.94034942 -12.40794652 24.25497429 -4.73046875 15.375 C-2.55221739 13.67356271 -0.45814042 12.2553324 2 11 C1.62095792 7.70924004 1.62095792 7.70924004 0 5 C-0.04063832 3.33382885 -0.042721 1.66611905 0 0 Z " fill="#F9F9F9" transform="translate(147,94)"/>
<path d="M0 0 C0.53625 0.86625 1.0725 1.7325 1.625 2.625 C6.29381003 9.83890142 14.28739453 13.40844836 21.80786133 17.02099609 C25.93360278 19.08837496 27.98972077 20.85040334 30 25 C30.556875 25.70125 31.11375 26.4025 31.6875 27.125 C33 29 33 29 33 32 C34.65 32.33 36.3 32.66 38 33 C36.60567308 37.43649473 34.35499988 39.94639491 31 43 C30.32066406 43.67160156 29.64132813 44.34320313 28.94140625 45.03515625 C18.00495635 55.50469696 5.84888372 62.44595089 -9.52050781 62.43603516 C-16.70138655 62.25457451 -22.21288775 60.43696562 -27.60546875 55.54296875 C-30.41917407 52.41571269 -32.55514068 48.93322814 -34 45 C-33.06425425 28.64394401 -15.20011548 12.99753365 -4.21484375 1.94921875 C-2 0 -2 0 0 0 Z " fill="#FCFCFC" transform="translate(100,79)"/>
<path d="M0 0 C0.53753906 0.48855469 1.07507813 0.97710938 1.62890625 1.48046875 C4.6024443 3.38608045 6.4311184 3.36998167 9.9375 3.3125 C11.46697266 3.30669922 11.46697266 3.30669922 13.02734375 3.30078125 C16.03509637 2.99644886 18.26880782 2.26248479 21 1 C21 3.97 21 6.94 21 10 C21.66 10 22.32 10 23 10 C23 9.34 23 8.68 23 8 C25.8125 8.1875 25.8125 8.1875 29 9 C30.875 11.5625 30.875 11.5625 32 14 C31.01 14 30.02 14 29 14 C29.79664063 14.43699219 29.79664063 14.43699219 30.609375 14.8828125 C35.31889599 17.61570972 38.61025647 19.921795 41 25 C41.29970769 27.76230592 41.19259337 30.20739615 41 33 C33.56629975 32.24403048 33.56629975 32.24403048 30.625 30.9765625 C24.61680467 28.74137078 16.93655749 29.25026929 10.8125 31 C4.91406738 32.54712987 -0.19958655 33.31604129 -5.859375 30.65625 C-8.31207941 29.18739877 -10.67485966 27.66222799 -13 26 C-13.23783203 27.08667969 -13.23783203 27.08667969 -13.48046875 28.1953125 C-14.95584154 34.30873567 -16.15345661 38.82971848 -21 43 C-24.3125 43.375 -24.3125 43.375 -27 43 C-27 44.73912599 -25.74360879 46.01361978 -24.8125 47.4375 C-22.27736856 51.42745119 -20.16432036 55.54504212 -18.11328125 59.80078125 C-16.37443713 63.46892718 -16.37443713 63.46892718 -13.23046875 65.80859375 C-12.55628906 66.01613281 -11.88210937 66.22367187 -11.1875 66.4375 C-7.50243012 67.69941828 -4.91245794 69.36058499 -2 72 C-2.25068148 75.38419999 -3.30542561 76.3123671 -5.75 78.8125 C-9 81 -9 81 -11.5625 81.1875 C-15.06511331 79.48109864 -16.77305933 77.15483261 -19 74 C-19.13849365 73.32235596 -19.2769873 72.64471191 -19.41967773 71.9465332 C-19.83262831 69.89509362 -19.83262831 69.89509362 -21.54711914 68.73901367 C-22.20317139 68.38556885 -22.85922363 68.03212402 -23.53515625 67.66796875 C-24.62074829 67.06408325 -24.62074829 67.06408325 -25.72827148 66.44799805 C-26.49856689 66.03203369 -27.2688623 65.61606934 -28.0625 65.1875 C-42.70157433 56.92647719 -42.70157433 56.92647719 -46.5 50.4375 C-47.63569724 44.90097594 -47.23162026 41.7738563 -44.12890625 36.94140625 C-42.84960661 34.741365 -42.06154653 32.51254701 -41.1875 30.125 C-40.21484375 27.82421875 -40.21484375 27.82421875 -39 26 C-35.25 24.9375 -35.25 24.9375 -32 25 C-32.66 24.34 -33.32 23.68 -34 23 C-33.92018778 19.32863808 -33.49790106 17.54457928 -31 14.8125 C-27.70441877 12.82141967 -24.58001408 11.74934171 -20.890625 10.7109375 C-18.80172193 10.16993333 -18.80172193 10.16993333 -18 8 C-16.33388095 7.957279 -14.66617115 7.95936168 -13 8 C-12.505 8.495 -12.505 8.495 -12 9 C-11.4740625 8.2265625 -11.4740625 8.2265625 -10.9375 7.4375 C-9 6 -9 6 -5.5625 6.25 C-0.27272727 7.36363636 -0.27272727 7.36363636 2 8 C1.34 7.34 0.68 6.68 0 6 C-0.125 2.875 -0.125 2.875 0 0 Z " fill="#FAFAFA" transform="translate(150,29)"/>
<path d="M0 0 C-0.125 2.8125 -0.125 2.8125 -1 6 C-1.928125 6.391875 -2.85625 6.78375 -3.8125 7.1875 C-4.864375 7.785625 -5.91625 8.38375 -7 9 C-7.36938915 10.65356816 -7.68706612 12.31887182 -7.9765625 13.98828125 C-9.81245018 19.34008758 -12.38606193 21.28319737 -17.18260193 23.83805847 C-21.59955373 25.99378627 -26.06595261 28.01658819 -30.5625 30 C-34.15387987 31.63129693 -37.73588237 33.28253173 -41.31640625 34.9375 C-42.2020929 35.34365036 -43.08777954 35.74980072 -44.00030518 36.16825867 C-61.02369116 44.07856834 -76.54901694 53.80476701 -90.35546875 66.56640625 C-92 68 -92 68 -93 68 C-92.49194764 54.7906387 -84.03587407 43.55508934 -74.65625 34.81640625 C-68.24947106 29.48089067 -61.21368293 25.14913564 -54 21 C-53.39897461 20.64824707 -52.79794922 20.29649414 -52.17871094 19.93408203 C-37.55232793 11.45474327 -17.18562421 0 0 0 Z " fill="#FAFAFA" transform="translate(114,46)"/>
<path d="M0 0 C0.99 0.33 1.98 0.66 3 1 C3.12549237 7.52560315 3.12549237 7.52560315 2.50219727 9.88183594 C1.87713912 12.51820173 1.88793467 14.93171724 1.90234375 17.640625 C1.90717773 19.24550781 1.90717773 19.24550781 1.91210938 20.8828125 C1.92048828 21.99398437 1.92886719 23.10515625 1.9375 24.25 C1.94201172 25.37664062 1.94652344 26.50328125 1.95117188 27.6640625 C1.96294603 30.44276217 1.9793916 33.22135409 2 36 C9.8872092 40.58003647 17.76921892 45.05529386 26 49 C25.75 50.875 25.75 50.875 25 53 C16.56508775 59.09081363 -4.21339655 54.81880134 -14.3671875 53.59375 C-19.09885586 52.77085115 -19.09885586 52.77085115 -21 52 C-23.59558305 48.10662542 -22.82799071 45.35740566 -22 41 C-21.82855469 40.36578125 -21.65710938 39.7315625 -21.48046875 39.078125 C-19.54315537 30.69885088 -21.30050113 23.26301773 -24.21020508 15.39111328 C-26.04259149 10.31121706 -26.46873908 6.34362548 -26 1 C-25.34 1.66 -24.68 2.32 -24 3 C-20.54056667 3.45091675 -17.04795566 3.32406422 -13.5625 3.3125 C-12.59505859 3.32861328 -11.62761719 3.34472656 -10.63085938 3.36132812 C-9.70208984 3.36197266 -8.77332031 3.36261719 -7.81640625 3.36328125 C-6.53938843 3.36775269 -6.53938843 3.36775269 -5.23657227 3.37231445 C-2.55756265 2.92634898 -1.68377654 2.07463487 0 0 Z " fill="#151515" transform="translate(179,165)"/>
<path d="M0 0 C2.76830342 1.05846895 5.21500746 2.1319364 7.75 3.6875 C12.15440329 5.46620133 15.41432132 4.81684929 20 4 C29.84296555 2.35950574 38.622894 2.27616984 48 6 C48.495 6.495 48.495 6.495 49 7 C48.71821106 11.9782713 47.68046003 16.11943345 46 20.8125 C43.97711136 26.56600574 43.3005185 31.94157408 43 38 C18.49017787 39.34328705 18.49017787 39.34328705 10 32 C8.21995895 28.63770025 8 26.89028055 8 23 C8.99 22.34 9.98 21.68 11 21 C9.4840625 20.690625 9.4840625 20.690625 7.9375 20.375 C3.35092343 19.10199099 0.3626803 16.25025026 -3 13 C-2.85691406 12.43796875 -2.71382812 11.8759375 -2.56640625 11.296875 C-1.98879098 8.95454547 -1.45716693 6.60582341 -0.9375 4.25 C-0.76089844 3.45078125 -0.58429688 2.6515625 -0.40234375 1.828125 C-0.26957031 1.22484375 -0.13679687 0.6215625 0 0 Z " fill="#FAFAFA" transform="translate(138,58)"/>
<path d="M0 0 C0.33 0 0.66 0 1 0 C0.11022754 7.71136135 -0.96881648 15.44511507 -2.68359375 23.01953125 C-3.05306201 26.49983103 -2.41487727 28.36141845 -1.0625 31.5625 C0.48422066 35.25890023 1.23991237 37.97965023 1 42 C0.030625 42.4125 -0.93875 42.825 -1.9375 43.25 C-2.948125 43.8275 -3.95875 44.405 -5 45 C-5.33 46.32 -5.66 47.64 -6 49 C-0.39 49.33 5.22 49.66 11 50 C10.505 50.99 10.505 50.99 10 52 C7.06243881 52.0269501 4.12512445 52.04681474 1.1875 52.0625 C-0.06256836 52.07506836 -0.06256836 52.07506836 -1.33789062 52.08789062 C-2.14033203 52.09111328 -2.94277344 52.09433594 -3.76953125 52.09765625 C-4.50792236 52.10289307 -5.24631348 52.10812988 -6.00708008 52.11352539 C-8 52 -8 52 -11 51 C-11 52.65 -11 54.3 -11 56 C-11.33 56 -11.66 56 -12 56 C-12 53.36 -12 50.72 -12 48 C-11.01 48 -10.02 48 -9 48 C-8.731875 47.236875 -8.46375 46.47375 -8.1875 45.6875 C-7 43 -7 43 -5.40625 41.65625 C-3.74313784 40.04667552 -3.74313784 40.04667552 -3.92578125 37.51953125 C-4.11720703 36.17955078 -4.11720703 36.17955078 -4.3125 34.8125 C-4.43238281 33.91144531 -4.55226562 33.01039063 -4.67578125 32.08203125 C-4.78277344 31.39496094 -4.88976562 30.70789063 -5 30 C-5.66 30 -6.32 30 -7 30 C-8.50846152 31.52620876 -8.50846152 31.52620876 -10 33.4375 C-12.79661017 36.89830508 -12.79661017 36.89830508 -15 38 C-17.63853301 42.3931902 -18.40596069 45.99430999 -18.8125 51.0625 C-19.58461147 57.83178766 -21.4317337 62.93782757 -24.66015625 69 C-27.28383432 74.87459112 -27.16482967 81.05417373 -27.125 87.375 C-27.12209961 88.49056274 -27.12209961 88.49056274 -27.11914062 89.62866211 C-27.07833915 94.81554913 -26.74740677 99.86157844 -26 105 C-29.64396001 107.42930667 -31.53912081 107.29874985 -35.875 107.3125 C-37.08929688 107.32925781 -38.30359375 107.34601563 -39.5546875 107.36328125 C-43.23585771 106.97513065 -45.10446046 106.26746295 -48 104 C-49.46880709 100.16478149 -49.5339088 98.25788575 -47.92260742 94.46166992 C-47.46732666 93.51912354 -47.0120459 92.57657715 -46.54296875 91.60546875 C-43.60320586 84.7690647 -43.22501327 78.6192744 -43.1875 71.25 C-43.16236328 70.0640625 -43.13722656 68.878125 -43.11132812 67.65625 C-43.05314765 64.77049831 -43.01636263 61.88623925 -43 59 C-42.67 59 -42.34 59 -42 59 C-41.67 66.26 -41.34 73.52 -41 81 C-37.04 81.66 -33.08 82.32 -29 83 C-29.12375 81.35 -29.2475 79.7 -29.375 78 C-29.40894238 70.82967252 -27.12370041 65.25699144 -24.46875 58.73828125 C-22.77473745 54.56329882 -21.79176051 50.43385883 -21 46 C-21.66 45.67 -22.32 45.34 -23 45 C-22.401875 44.113125 -21.80375 43.22625 -21.1875 42.3125 C-19.919443 40.3922994 -18.68832367 38.44440307 -17.5625 36.4375 C-15.70802576 33.54452018 -13.42703901 31.42703901 -11 29 C-7.05161851 24.00645871 -5.65798211 19.01937347 -4 13 C-3.2776795 10.6229089 -2.54839082 8.24792514 -1.8125 5.875 C-1.46832031 4.75867188 -1.12414062 3.64234375 -0.76953125 2.4921875 C-0.38861328 1.25855469 -0.38861328 1.25855469 0 0 Z " fill="#141414" transform="translate(166,117)"/>
<path d="M0 0 C4.01349645 0.28001138 5.72035142 0.75763789 8.8125 3.4375 C12.08224704 7.26777511 12.09471221 9.09602835 12 14.0625 C11.96235323 16.04130858 11.95337573 18.02138259 12 20 C12.33 20.33 12.66 20.66 13 21 C13.1245486 22.64230364 13.17568524 24.29052276 13.1875 25.9375 C13.20167969 26.83339844 13.21585938 27.72929688 13.23046875 28.65234375 C13 31 13 31 11 33 C11.804375 33.144375 12.60875 33.28875 13.4375 33.4375 C16 34 16 34 17 35 C18.36775767 43.41430671 15.45364148 49.04664309 11 56 C10.39671875 56.96873047 10.39671875 56.96873047 9.78125 57.95703125 C8.34052349 60.19998048 6.88911473 62.11088527 5 64 C1.6545418 63.81752046 -1.01065234 63.57445993 -3.9375 61.875 C-5.64550843 58.86086748 -5.36204814 56.37911601 -5 53 C-3.9375 51.0625 -3.9375 51.0625 -2 50 C1.6875 49.8125 1.6875 49.8125 5 50 C4.505 48.989375 4.01 47.97875 3.5 46.9375 C2.20490974 43.98923001 2.0052006 42.69316462 2.0625 39.3125 C2.34034463 35.90147047 2.34034463 35.90147047 0 33.5625 C-0.66 33.046875 -1.32 32.53125 -2 32 C-1.525625 30.80375 -1.05125 29.6075 -0.5625 28.375 C0.46264897 25.68577202 1.07338792 23.50463155 1.5 20.625 C1.665 19.75875 1.83 18.8925 2 18 C2.99 17.34 3.98 16.68 5 16 C6.06198057 9.49536899 3.36237593 5.29574209 0 0 Z " fill="#F7F7F7" transform="translate(188,48)"/>
<path d="M0 0 C0 6.93 0 13.86 0 21 C1.98 21.66 3.96 22.32 6 23 C7.97256428 24.12829635 9.91175995 25.31700823 11.8125 26.5625 C12.76769531 27.18253906 13.72289062 27.80257812 14.70703125 28.44140625 C17 30 17 30 18 31 C18.04063832 32.66617115 18.042721 34.33388095 18 36 C14.99978513 35.85785272 11.99988211 35.71138304 9 35.5625 C8.16082031 35.52318359 7.32164062 35.48386719 6.45703125 35.44335938 C-8.30022321 34.69977679 -8.30022321 34.69977679 -10 33 C-10.04080783 31.00041636 -10.04254356 28.99954746 -10 27 C-12.31 26.67 -14.62 26.34 -17 26 C-16.83886719 25.43410156 -16.67773438 24.86820313 -16.51171875 24.28515625 C-14.77743492 16.54045365 -16.37603546 8.62683347 -18 1 C-15.1875205 0.83298107 -12.37501801 0.66636797 -9.5625 0.5 C-8.76005859 0.45230469 -7.95761719 0.40460938 -7.13085938 0.35546875 C-1.11328125 0 -1.11328125 0 0 0 Z " fill="#FAFAFA" transform="translate(177,182)"/>
<path d="M0 0 C0.33 0 0.66 0 1 0 C1.08935201 3.21667249 0.84062397 5.90226756 0 9 C4.52084209 13.49335977 7.54972485 15.73672346 14 16 C13.34 16.99 12.68 17.98 12 19 C11.34 19 10.68 19 10 19 C10.50062115 22.33021894 11.27308314 25.09253545 13 28 C16.46543067 30.26710418 20.120812 31.59808735 24 33 C25.34345743 33.64602196 26.68131547 34.30480698 28 35 C16.47835991 34.22095672 16.47835991 34.22095672 11 32 C11.309375 32.886875 11.61875 33.77375 11.9375 34.6875 C12.83058657 37.47182872 13.4582708 40.1351798 14 43 C12.71372289 44.17260611 11.42080217 45.3379283 10.125 46.5 C9.40570313 47.1496875 8.68640625 47.799375 7.9453125 48.46875 C6 50 6 50 4 50 C4 50.99 4 51.98 4 53 C2.515 53.495 2.515 53.495 1 54 C1.33 52.68 1.66 51.36 2 50 C0.8553125 49.9071875 0.8553125 49.9071875 -0.3125 49.8125 C-3 49 -3 49 -4.8125 46.625 C-6 44 -6 44 -6 41 C-5.34 41 -4.68 41 -4 41 C-3.2575 42.010625 -2.515 43.02125 -1.75 44.0625 C-0.48785703 45.72819698 -0.48785703 45.72819698 1 47 C4.78035527 47.15430022 6.41775595 46.4329507 9.4375 44.1875 C11.15277546 42.17364787 11.15277546 42.17364787 11.1875 40 C8.9268387 36.19257044 4.52862426 34.50172637 0.453125 33.1640625 C-2.57691765 31.72623971 -3.38122326 30.40644006 -5 27.5 C-5.50144531 26.61054687 -6.00289062 25.72109375 -6.51953125 24.8046875 C-8.36247521 21.31330554 -10.13340363 17.7941243 -11.82421875 14.2265625 C-13.02431094 11.95396267 -14.40636355 10.01156416 -16 8 C-15.39671875 8.13019531 -14.7934375 8.26039062 -14.171875 8.39453125 C-11.71529284 8.81848978 -9.49311416 9.10352031 -7 9 C-4.49602502 6.91170257 -4.49602502 6.91170257 -3 4 C-2.01755155 2.65368175 -1.02323436 1.31558703 0 0 Z " fill="#0E0E0E" transform="translate(136,62)"/>
<path d="M0 0 C0.7321875 -0.00773438 1.464375 -0.01546875 2.21875 -0.0234375 C5.41755295 0.53525754 7.06007565 1.18076247 9.5 3.375 C10.2127168 6.30200545 10.10597815 9.12870864 10 12.125 C10.00386719 13.30449219 10.00386719 13.30449219 10.0078125 14.5078125 C9.92202939 19.67195564 9.37121232 25.50378768 5.5 29.375 C3.1015625 29.61328125 3.1015625 29.61328125 0.125 29.6875 C-0.85210937 29.72488281 -1.82921875 29.76226562 -2.8359375 29.80078125 C-5.5 29.375 -5.5 29.375 -7.2890625 27.60546875 C-9.92641176 22.74764156 -9.78056902 17.71652747 -9.875 12.3125 C-9.91238281 11.49716797 -9.94976562 10.68183594 -9.98828125 9.84179688 C-10.02169548 7.58262373 -9.98549763 5.58222677 -9.5 3.375 C-6.53632521 0.68497463 -3.95328443 -0.04176005 0 0 Z " fill="#F9F9F9" transform="translate(160.5,2.625)"/>
<path d="M0 0 C0.495 0.268125 0.99 0.53625 1.5 0.8125 C4.139193 2.14108445 4.139193 2.14108445 7.6875 3.125 C13.97033788 5.4471746 19.41786951 10.02559469 22.5625 15.9375 C23.05022722 19.35159055 23.1073051 22.60454795 22.97265625 26.046875 C22.85962537 28.08145826 22.85962537 28.08145826 24 30 C24.12800594 31.58158453 24.22847191 33.16547028 24.3125 34.75 C24.72664595 39.5609955 26.25744885 42.01887736 29 46 C30.01082342 52.84048608 27.12885776 57.13446792 23.6875 62.75 C22.93823242 64.02423828 22.93823242 64.02423828 22.17382812 65.32421875 C17.82361884 72.61874187 17.82361884 72.61874187 15 75 C12.73828125 75.07421875 12.73828125 75.07421875 10.3125 74.6875 C9.55090576 74.56608643 8.78931152 74.44467285 8.00463867 74.31958008 C7.34310791 74.21411865 6.68157715 74.10865723 6 74 C6.21112427 74.80703369 6.21112427 74.80703369 6.42651367 75.63037109 C7.82694638 81.3641833 8.33625646 86.73339764 8.3125 92.625 C8.32861328 93.43195313 8.34472656 94.23890625 8.36132812 95.0703125 C8.36575815 100.52810723 7.3248651 104.08525928 5 109 C4.58838936 111.27775413 4.58838936 111.27775413 4.5625 113.375 C4.16153162 118.43940503 2.28133593 122.5116042 0 127 C-2.2657904 122.46841919 0.00422569 115.7807594 1 111 C2.02734375 108.63671875 2.02734375 108.63671875 3.125 106.625 C7.69872106 97.49456055 5.03662605 83.7739028 4 74 C8.6796875 71.9765625 8.6796875 71.9765625 11.5625 72.1875 C14.21128123 72.249696 14.21128123 72.249696 16.125 69.875 C18.00658365 66.98990507 19.51016213 64.1038289 21 61 C21.721875 59.9275 22.44375 58.855 23.1875 57.75 C25.77033431 53.37980507 25.35670895 48.92456524 25 44 C24.21625 43.855625 23.4325 43.71125 22.625 43.5625 C20 43 20 43 18 42 C18.99 41.34 19.98 40.68 21 40 C21.40214757 37.5989559 21.40214757 37.5989559 21.25 34.9375 C21.23453125 34.03902344 21.2190625 33.14054687 21.203125 32.21484375 C21.24059115 30.02740001 21.24059115 30.02740001 20 29 C20.00913736 26.0212215 20.13319944 23.05417809 20.2578125 20.078125 C19.96450259 16.57618243 19.06320297 14.80936132 17 12 C14.6798829 10.37591803 13.50372347 9.96878096 10.66796875 10.14453125 C7.35010624 9.96479346 5.8668614 8.91954249 3.1875 7 C2.39730469 6.443125 1.60710937 5.88625 0.79296875 5.3125 C0.20128906 4.879375 -0.39039063 4.44625 -1 4 C-0.01 3.67 0.98 3.34 2 3 C1.34 2.01 0.68 1.02 0 0 Z " fill="#212121" transform="translate(179,39)"/>
<path d="M0 0 C0.33 0 0.66 0 1 0 C1.02578125 1.03640625 1.0515625 2.0728125 1.078125 3.140625 C1.13441951 4.51045801 1.19176655 5.88024805 1.25 7.25 C1.26417969 7.93191406 1.27835938 8.61382812 1.29296875 9.31640625 C1.44600423 12.46893711 1.73285031 14.61576203 3.55078125 17.23046875 C6.83478658 19.60312332 10.28211927 21.33310839 13.9375 23.0625 C18.41011211 25.21476522 22.78948198 27.35503663 27 30 C26.75 31.875 26.75 31.875 26 34 C16.37770657 40.34850164 -7.19980602 35.83835033 -18.28515625 33.6953125 C-20 33 -20 33 -22 30 C-21.69782337 25.31626218 -21.17464107 21.22136208 -19 17 C-18.34 16.67 -17.68 16.34 -17 16 C-16.875 21.75 -16.875 21.75 -18 24 C-15.69 24.33 -13.38 24.66 -11 25 C-10.67 26.98 -10.34 28.96 -10 31 C3.365 32.485 3.365 32.485 17 34 C15.71798062 27.87736037 15.71798062 27.87736037 11.5234375 26.11328125 C10.8519165 25.82380615 10.18039551 25.53433105 9.48852539 25.23608398 C5.85775298 23.64948216 2.60467023 22.05070566 0 19 C-1.90009977 12.8673189 -0.85805804 6.2479337 0 0 Z " fill="#151515" transform="translate(178,184)"/>
<path d="M0 0 C0.53753906 0.48855469 1.07507813 0.97710938 1.62890625 1.48046875 C4.6024443 3.38608045 6.4311184 3.36998167 9.9375 3.3125 C10.95714844 3.30863281 11.97679687 3.30476563 13.02734375 3.30078125 C16.03509637 2.99644886 18.26880782 2.26248479 21 1 C21.16726545 2.64577259 21.33379612 4.29161987 21.5 5.9375 C21.5928125 6.85402344 21.685625 7.77054688 21.78125 8.71484375 C22 11 22 11 22 12 C23.65 12 25.3 12 27 12 C21.45085489 14.97275631 15.35925082 16.157935 9.15258789 14.50927734 C6.90992582 13.97868949 4.85942804 13.81095012 2.55859375 13.71875 C1.72779297 13.68136719 0.89699219 13.64398438 0.04101562 13.60546875 C-1.69856132 13.53499827 -3.43814469 13.46468647 -5.17773438 13.39453125 C-6.42200195 13.33845703 -6.42200195 13.33845703 -7.69140625 13.28125 C-8.44623291 13.25095703 -9.20105957 13.22066406 -9.97875977 13.18945312 C-12 13 -12 13 -15 12 C-15 11.34 -15 10.68 -15 10 C-16.32 9.67 -17.64 9.34 -19 9 C-18 8 -18 8 -15.5 7.875 C-13 8 -13 8 -12 9 C-11.649375 8.484375 -11.29875 7.96875 -10.9375 7.4375 C-9 6 -9 6 -5.5625 6.25 C-0.27272727 7.36363636 -0.27272727 7.36363636 2 8 C1.34 7.34 0.68 6.68 0 6 C-0.125 2.875 -0.125 2.875 0 0 Z " fill="#DFDFDF" transform="translate(150,29)"/>
<path d="M0 0 C1.53297297 3.06594594 1.12131455 6.27111853 1.09765625 9.6328125 C1.0962413 10.38464813 1.09482635 11.13648376 1.09336853 11.91110229 C1.08776465 14.3157751 1.07521157 16.72035527 1.0625 19.125 C1.0574855 20.75390491 1.0529225 22.38281127 1.04882812 24.01171875 C1.03779397 28.00784827 1.02052679 32.00390842 1 36 C0.34 36 -0.32 36 -1 36 C-1 33.03 -1 30.06 -1 27 C-1.69867188 27.48726562 -2.39734375 27.97453125 -3.1171875 28.4765625 C-6.39901194 30.21085997 -8.43964525 30.40270943 -12.125 30.375 C-13.15882813 30.38273437 -14.19265625 30.39046875 -15.2578125 30.3984375 C-18.2834498 29.95881499 -19.17233014 29.38227313 -21 27 C-21.26218749 30.14624993 -21.24754367 31.61837017 -19.5 34.3125 C-19.005 34.869375 -18.51 35.42625 -18 36 C-18.845625 35.690625 -19.69125 35.38125 -20.5625 35.0625 C-24.65377681 33.79792353 -28.7042085 33 -33 33 C-33.33 33.99 -33.66 34.98 -34 36 C-34.33 35.67 -34.66 35.34 -35 35 C-36.99958364 34.95919217 -39.00045254 34.95745644 -41 35 C-41.33 34.34 -41.66 33.68 -42 33 C-38.24142629 32.22597091 -34.47373749 31.56160508 -30.6875 30.9375 C-29.61886719 30.76089844 -28.55023438 30.58429687 -27.44921875 30.40234375 C-26.23685547 30.20318359 -26.23685547 30.20318359 -25 30 C-24.98018066 29.20303711 -24.96036133 28.40607422 -24.93994141 27.58496094 C-24.84466752 23.97297528 -24.73499693 20.36156601 -24.625 16.75 C-24.57859375 14.86861328 -24.57859375 14.86861328 -24.53125 12.94921875 C-24.49257812 11.74394531 -24.45390625 10.53867188 -24.4140625 9.296875 C-24.3826416 8.18666992 -24.3512207 7.07646484 -24.31884766 5.93261719 C-24.00789521 3.07261654 -23.59683218 1.37153294 -22 -1 C-14.62855848 -4.59582513 -7.02460108 -3.80499225 0 0 Z M-21 3 C-21.7127168 5.92700545 -21.60597815 8.75370864 -21.5 11.75 C-21.50257813 12.53632813 -21.50515625 13.32265625 -21.5078125 14.1328125 C-21.42202939 19.29695564 -20.87121232 25.12878768 -17 29 C-14.50932826 29.27732802 -14.50932826 29.27732802 -11.625 29.3125 C-10.64789063 29.34988281 -9.67078125 29.38726562 -8.6640625 29.42578125 C-5.90555292 29.25000889 -5.90555292 29.25000889 -4.2109375 27.23046875 C-1.57358824 22.37264156 -1.71943098 17.34152747 -1.625 11.9375 C-1.58761719 11.12216797 -1.55023438 10.30683594 -1.51171875 9.46679688 C-1.47830452 7.20762373 -1.51450237 5.20722677 -2 3 C-4.96367479 0.30997463 -7.54671557 -0.41676005 -11.5 -0.375 C-12.59828125 -0.38660156 -12.59828125 -0.38660156 -13.71875 -0.3984375 C-16.91755295 0.16025754 -18.56007565 0.80576247 -21 3 Z " fill="#161616" transform="translate(172,3)"/>
<path d="M0 0 C1.875 1.0625 1.875 1.0625 3 3 C3.04665734 5.33286681 3.03762951 7.66697011 3 10 C3.50453492 12.38969642 4.10190161 14.72965948 4.7578125 17.08203125 C4.83773437 17.71496094 4.91765625 18.34789062 5 19 C2.43599223 21.56400777 1.31217985 21.32633634 -2.25 21.375 C-7.48235533 21.30624369 -10.07603558 20.39369896 -14 17 C-13.67966774 13.26279029 -13.13022726 12.12712661 -10.375 9.4375 C-9.199375 8.2309375 -9.199375 8.2309375 -8 7 C-8.3185177 4.89179203 -8.3185177 4.89179203 -9 3 C-6.77664494 -0.66199657 -3.98910802 -0.4986385 0 0 Z " fill="#F2F2F2" transform="translate(133,201)"/>
<path d="M0 0 C0.0871747 3.74985325 0.14045003 7.49944555 0.1875 11.25 C0.21263672 12.31347656 0.23777344 13.37695312 0.26367188 14.47265625 C0.27333984 15.49746094 0.28300781 16.52226562 0.29296875 17.578125 C0.3086792 18.52075195 0.32438965 19.46337891 0.34057617 20.43457031 C0 23 0 23 -3 27 C-3.495 17.1 -3.495 17.1 -4 7 C-9.61 7 -15.22 7 -21 7 C-20.34 8.65 -19.68 10.3 -19 12 C-17.76424747 17.31373587 -17.90356877 22.57842203 -18 28 C-20.17522833 26.2586603 -20.93691564 25.37547324 -21.40625 22.58203125 C-21.45265625 21.21111328 -21.45265625 21.21111328 -21.5 19.8125 C-21.73165002 16.08638478 -22.16219085 13.027451 -23.5625 9.5625 C-25 6 -25 6 -25 2 C-21.795109 0.3975545 -18.27718357 0.61830521 -14.75 0.4375 C-13.62271484 0.37272461 -13.62271484 0.37272461 -12.47265625 0.30664062 C-8.30973102 0.07778871 -4.17091512 -0.04649109 0 0 Z " fill="#1E1E1E" transform="translate(180,176)"/>
<path d="M0 0 C3.18460659 1.47206071 5.89176169 3.25855678 8.6875 5.375 C9.47511719 5.96023437 10.26273438 6.54546875 11.07421875 7.1484375 C13.7449427 9.71623294 13.9337766 11.54838305 14.09765625 15.140625 C14.06510417 17.09375 14.03255208 19.046875 14 21 C10.05614258 20.81656477 8.33894694 20.30666628 5.375 17.625 C2.17016923 13.34842388 0.2486691 8.16494946 -1 3 C-0.67 2.01 -0.34 1.02 0 0 Z " fill="#F4F4F4" transform="translate(129,74)"/>
<path d="M0 0 C0.495 0.268125 0.99 0.53625 1.5 0.8125 C4.139193 2.14108445 4.139193 2.14108445 7.6875 3.125 C13.97033788 5.4471746 19.41786951 10.02559469 22.5625 15.9375 C23.05022722 19.35159055 23.1073051 22.60454795 22.97265625 26.046875 C22.85962537 28.08145826 22.85962537 28.08145826 24 30 C24.12800594 31.58158453 24.22847191 33.16547028 24.3125 34.75 C24.72664595 39.5609955 26.25744885 42.01887736 29 46 C29.25 49.875 29.25 49.875 29 53 C27.515 53.495 27.515 53.495 26 54 C25.505 49.05 25.505 49.05 25 44 C24.21625 43.855625 23.4325 43.71125 22.625 43.5625 C20 43 20 43 18 42 C18.99 41.34 19.98 40.68 21 40 C21.40214757 37.5989559 21.40214757 37.5989559 21.25 34.9375 C21.23453125 34.03902344 21.2190625 33.14054687 21.203125 32.21484375 C21.24059115 30.02740001 21.24059115 30.02740001 20 29 C20.00913736 26.0212215 20.13319944 23.05417809 20.2578125 20.078125 C19.96450259 16.57618243 19.06320297 14.80936132 17 12 C14.6798829 10.37591803 13.50372347 9.96878096 10.66796875 10.14453125 C7.35010624 9.96479346 5.8668614 8.91954249 3.1875 7 C2.39730469 6.443125 1.60710937 5.88625 0.79296875 5.3125 C0.20128906 4.879375 -0.39039063 4.44625 -1 4 C-0.01 3.67 0.98 3.34 2 3 C1.34 2.01 0.68 1.02 0 0 Z " fill="#050505" transform="translate(179,39)"/>
<path d="M0 0 C0.33 0 0.66 0 1 0 C1.125 5.75 1.125 5.75 0 8 C2.31 8.33 4.62 8.66 7 9 C7.33 10.98 7.66 12.96 8 15 C13.94 15.99 13.94 15.99 20 17 C20 17.33 20 17.66 20 18 C16.75030231 18.11638036 13.5011417 18.18730581 10.25 18.25 C8.86941406 18.30027344 8.86941406 18.30027344 7.4609375 18.3515625 C0.67340888 18.44993248 0.67340888 18.44993248 -2.6484375 16.23046875 C-4.39612024 13.34628713 -4.08724543 11.22335258 -3.4921875 7.96875 C-2 2 -2 2 0 0 Z " fill="#080808" transform="translate(160,200)"/>
<path d="M0 0 C8.25 0 16.5 0 25 0 C24.67 1.32 24.34 2.64 24 4 C18.89594732 5.67487072 14.61846315 6.24706191 9.1875 6.1875 C7.88167969 6.18105469 6.57585937 6.17460937 5.23046875 6.16796875 C2 6 2 6 0 5 C0 3.35 0 1.7 0 0 Z " fill="#EBEBEB" transform="translate(155,168)"/>
<path d="M0 0 C0.33 0 0.66 0 1 0 C1.33 7.26 1.66 14.52 2 22 C5.63 22.66 9.26 23.32 13 24 C10 26 10 26 7 25.8125 C6.01 25.874375 5.02 25.93625 4 26 C2.0645852 28.39056942 2.0645852 28.39056942 1 31 C1.66 31.33 2.32 31.66 3 32 C-2.75 37 -2.75 37 -5 37 C-4.52269162 35.5410574 -4.04308958 34.08286504 -3.5625 32.625 C-3.29566406 31.81289062 -3.02882813 31.00078125 -2.75390625 30.1640625 C-2 28 -2 28 -1 26 C-0.84621148 24.04225931 -0.75028537 22.07982648 -0.68359375 20.1171875 C-0.64169922 18.95058594 -0.59980469 17.78398437 -0.55664062 16.58203125 C-0.49766602 14.74705078 -0.49766602 14.74705078 -0.4375 12.875 C-0.37272461 11.02841797 -0.37272461 11.02841797 -0.30664062 9.14453125 C-0.20031296 6.09647147 -0.09828219 3.0483281 0 0 Z " fill="#343434" transform="translate(123,176)"/>
<path d="M0 0 C2.625 1.0625 2.625 1.0625 3.625 3.0625 C4.285 3.3925 4.945 3.7225 5.625 4.0625 C0.015 4.0625 -5.595 4.0625 -11.375 4.0625 C-11.705 2.4125 -12.035 0.7625 -12.375 -0.9375 C-8.49413008 -2.87793496 -4.00614662 -1.1128185 0 0 Z " fill="#EDEDED" transform="translate(151.375,36.9375)"/>
<path d="M0 0 C1 2 1 2 1.3125 4.5 C1.73128274 7.08735289 1.73128274 7.08735289 3.6953125 8.13671875 C6.43431238 9.16268311 8.64103299 9.30057564 11.5625 9.3125 C12.98755859 9.33763672 12.98755859 9.33763672 14.44140625 9.36328125 C17.35802152 8.94916641 18.2147863 8.27810098 20 6 C20 7.65 20 9.3 20 11 C17.07539571 12.46230215 14.44347176 12.20908727 11.1875 12.25 C9.35251953 12.28867188 9.35251953 12.28867188 7.48046875 12.328125 C3.75162396 11.97658408 1.89611822 11.34371049 -1 9 C-1.9375 5.4375 -1.9375 5.4375 -2 2 C-1.34 1.34 -0.68 0.68 0 0 Z " fill="#050505" transform="translate(119,212)"/>
<path d="M0 0 C0 0.99 0 1.98 0 3 C-2.34852528 4.17426264 -3.73774065 4.11508173 -6.3515625 4.09765625 C-7.20234375 4.09443359 -8.053125 4.09121094 -8.9296875 4.08789062 C-9.81914062 4.07951172 -10.70859375 4.07113281 -11.625 4.0625 C-12.5221875 4.05798828 -13.419375 4.05347656 -14.34375 4.04882812 C-16.56256648 4.03702591 -18.78125018 4.02056155 -21 4 C-21 3.01 -21 2.02 -21 1 C-18.25008168 0.83188272 -15.50007888 0.6654519 -12.75 0.5 C-11.97269531 0.45230469 -11.19539062 0.40460938 -10.39453125 0.35546875 C-9.26337891 0.28779297 -9.26337891 0.28779297 -8.109375 0.21875 C-7.41811523 0.17685547 -6.72685547 0.13496094 -6.01464844 0.09179688 C-4.01161035 0.00052902 -2.0051163 0 0 0 Z " fill="#F2F2F2" transform="translate(178,176)"/>
<path d="M0 0 C1.98 0.495 1.98 0.495 4 1 C4.12375 2.0725 4.2475 3.145 4.375 4.25 C4.89643936 7.37863615 5.40088254 9.33480424 7 12 C4.36 12.33 1.72 12.66 -1 13 C-1.07654536 8.48382401 -1.10228696 4.40914783 0 0 Z " fill="#EDEDED" transform="translate(184,84)"/>
<path d="M0 0 C0.99 0.33 1.98 0.66 3 1 C1.40343998 3.77528259 -0.20354783 6.54438618 -1.8125 9.3125 C-2.26431641 10.09818359 -2.71613281 10.88386719 -3.18164062 11.69335938 C-3.62314453 12.45068359 -4.06464844 13.20800781 -4.51953125 13.98828125 C-5.12438354 15.03302612 -5.12438354 15.03302612 -5.74145508 16.09887695 C-7.01660634 18.02508508 -8.22521628 19.52077491 -10 21 C-12.6875 21.1875 -12.6875 21.1875 -15 21 C-14 19 -14 19 -11.75 17.9375 C-7.72574019 15.10222604 -6.19693439 11.31540684 -4 7 C-3.23760884 5.64106251 -2.46766746 4.28631064 -1.6875 2.9375 C-1.130625 1.968125 -0.57375 0.99875 0 0 Z " fill="#161616" transform="translate(204,93)"/>
<path d="M0 0 C0.33 0 0.66 0 1 0 C1.2475 1.03125 1.495 2.0625 1.75 3.125 C2.55439226 6.02780684 3.30978116 7.43733811 5.125 10 C7.37574013 13.60118421 7.33355511 15.83056116 7 20 C6.01 20.33 5.02 20.66 4 21 C3.67 17.7 3.34 14.4 3 11 C1.824375 10.7834375 1.824375 10.7834375 0.625 10.5625 C-2 10 -2 10 -4 9 C-3.01 8.34 -2.02 7.68 -1 7 C-0.26393501 3.43230448 -0.26393501 3.43230448 0 0 Z " fill="#292929" transform="translate(201,72)"/>
<path d="M0 0 C2.625 0.125 2.625 0.125 5.625 1.125 C5.625 2.115 5.625 3.105 5.625 4.125 C8.06287385 3.9840651 10.50017853 3.83745458 12.9375 3.6875 C13.62779297 3.64818359 14.31808594 3.60886719 15.02929688 3.56835938 C18.09661535 3.37572585 20.69468152 3.10177283 23.625 2.125 C24.615 2.785 25.605 3.445 26.625 4.125 C26.625 4.785 26.625 5.445 26.625 6.125 C22.85387069 5.98625385 19.08318555 5.83778907 15.3125 5.6875 C13.7047168 5.62852539 13.7047168 5.62852539 12.06445312 5.56835938 C11.03642578 5.52646484 10.00839844 5.48457031 8.94921875 5.44140625 C7.5274231 5.38641968 7.5274231 5.38641968 6.0769043 5.33032227 C3.625 5.125 3.625 5.125 0.625 4.125 C0.625 3.465 0.625 2.805 0.625 2.125 C-0.695 1.795 -2.015 1.465 -3.375 1.125 C-2.375 0.125 -2.375 0.125 0 0 Z " fill="#838383" transform="translate(134.375,36.875)"/>
<path d="M0 0 C0.495 0.268125 0.99 0.53625 1.5 0.8125 C4.9236946 2.43875493 8.44132285 3.69515171 12 5 C12 5.99 12 6.98 12 8 C6.80408388 7.55966813 3.33664919 7.11696661 -1 4 C-0.01 3.67 0.98 3.34 2 3 C1.34 2.01 0.68 1.02 0 0 Z " fill="#777777" transform="translate(179,39)"/>
<path d="M0 0 C0.99 0 1.98 0 3 0 C4.17076699 3.98060777 5.25749403 7.91621717 6 12 C3.36 12.33 0.72 12.66 -2 13 C-2 12.01 -2 11.02 -2 10 C-0.02 10 1.96 10 4 10 C3.01 8.63875 3.01 8.63875 2 7.25 C0 4 0 4 0 0 Z " fill="#313131" transform="translate(187,86)"/>
<path d="M0 0 C3.51850542 1.37680647 4.3196182 2.75500611 5.875 6.125 C4.225 6.125 2.575 6.125 0.875 6.125 C0.875 5.465 0.875 4.805 0.875 4.125 C-3.58 4.62 -3.58 4.62 -8.125 5.125 C-4.00794652 0.16031786 -4.00794652 0.16031786 0 0 Z " fill="#E5E5E5" transform="translate(176.125,36.875)"/>
<path d="M0 0 C3.5875213 1.33250791 6.8364623 2.830717 10 5 C10 5.66 10 6.32 10 7 C6.9168649 5.80100302 3.93720508 4.52299523 1 3 C1 4.65 1 6.3 1 8 C0.01 8 -0.98 8 -2 8 C-1.125 2.25 -1.125 2.25 0 0 Z " fill="#232323" transform="translate(137,55)"/>
<path d="M0 0 C1.2989839 0.90626784 2.58893167 1.82549537 3.875 2.75 C4.59429687 3.26046875 5.31359375 3.7709375 6.0546875 4.296875 C8.08570565 6.07503547 8.97855012 7.52701607 10 10 C9.01 10.495 9.01 10.495 8 11 C7.5875 10.21625 7.175 9.4325 6.75 8.625 C4.91315611 5.86973416 4.09506593 5.00134486 1 4 C0.13375 4.020625 -0.7325 4.04125 -1.625 4.0625 C-2.40875 4.041875 -3.1925 4.02125 -4 4 C-4.66 3.01 -5.32 2.02 -6 1 C-3.03 1.495 -3.03 1.495 0 2 C0 1.34 0 0.68 0 0 Z " fill="#1B1B1B" transform="translate(191,45)"/>
<path d="M0 0 C0.33 0 0.66 0 1 0 C0.67 4.95 0.34 9.9 0 15 C-0.99 15 -1.98 15 -3 15 C-3.33 14.01 -3.66 13.02 -4 12 C-3.34 11.67 -2.68 11.34 -2 11 C-1.57014306 8.67646015 -1.57014306 8.67646015 -1.4375 6 C-1.09618321 1.09618321 -1.09618321 1.09618321 0 0 Z " fill="#060606" transform="translate(138,189)"/>
<path d="M0 0 C0.33 0.66 0.66 1.32 1 2 C0.328125 3.91015625 0.328125 3.91015625 -0.75 6.0625 C-1.09546875 6.77535156 -1.4409375 7.48820312 -1.796875 8.22265625 C-3 10 -3 10 -6 11 C-5.57576756 9.53775201 -5.13509755 8.08026588 -4.6875 6.625 C-4.44386719 5.81289062 -4.20023438 5.00078125 -3.94921875 4.1640625 C-3 2 -3 2 0 0 Z " fill="#121212" transform="translate(26,95)"/>
<path d="M0 0 C3.74761789 1.24920596 4.22147043 2.91675423 6.015625 6.27734375 C7.10129531 8.1772668 8.33360669 9.58356569 10 11 C7.8125 11 7.8125 11 5 10 C2.65770658 7.11961214 0 3.81180628 0 0 Z " fill="#1C1C1C" transform="translate(129,84)"/>
<path d="M0 0 C2 3 2 3 2 5 C0.35 5 -1.3 5 -3 5 C-3 6.65 -3 8.3 -3 10 C-3.33 10 -3.66 10 -4 10 C-4 7.36 -4 4.72 -4 2 C-2.68 1.34 -1.36 0.68 0 0 Z " fill="#030303" transform="translate(158,163)"/>
<path d="M0 0 C0.99 0.495 0.99 0.495 2 1 C2.40729228 3.32156597 2.74438677 5.6568787 3 8 C3.66 8 4.32 8 5 8 C5 8.66 5 9.32 5 10 C4.01 10.33 3.02 10.66 2 11 C0.19769832 7.17010894 -0.19622241 4.21878192 0 0 Z " fill="#050505" transform="translate(181,102)"/>
<path d="M0 0 C1 3 1 3 0.25 5.125 C-1 7 -1 7 -4 8 C-3.40138258 5.64828869 -2.73075648 3.3140622 -2 1 C-1.34 0.67 -0.68 0.34 0 0 Z " fill="#1C1C1C" transform="translate(141,182)"/>
</svg>
